<mxfile host="app.diagrams.net" modified="2023-11-06T14:40:00.625Z" agent="Mozilla/5.0 (Windows NT 10.0; Win64; x64) AppleWebKit/537.36 (KHTML, like Gecko) Chrome/119.0.0.0 Safari/537.36 Edg/119.0.0.0" etag="hb7RDGA1yMUO7ix4HXvz" version="22.0.8" type="google">
  <diagram name="Trang-1" id="bHQQVaUO5YeKUtasN9kg">
    <mxGraphModel grid="1" page="1" gridSize="10" guides="1" tooltips="1" connect="1" arrows="1" fold="1" pageScale="1" pageWidth="827" pageHeight="1169" math="0" shadow="0">
      <root>
        <mxCell id="0" />
        <mxCell id="1" parent="0" />
        <mxCell id="lFMDpPRUeGEQqSGYaAWX-1" value="Start" style="ellipse;whiteSpace=wrap;html=1;" vertex="1" parent="1">
          <mxGeometry x="130" y="40" width="120" height="80" as="geometry" />
        </mxCell>
        <mxCell id="lFMDpPRUeGEQqSGYaAWX-3" value="a,b" style="shape=parallelogram;perimeter=parallelogramPerimeter;whiteSpace=wrap;html=1;fixedSize=1;" vertex="1" parent="1">
          <mxGeometry x="130" y="160" width="120" height="60" as="geometry" />
        </mxCell>
        <mxCell id="lFMDpPRUeGEQqSGYaAWX-4" value="c = a; d = b" style="rounded=0;whiteSpace=wrap;html=1;" vertex="1" parent="1">
          <mxGeometry x="120" y="260" width="120" height="60" as="geometry" />
        </mxCell>
        <mxCell id="lFMDpPRUeGEQqSGYaAWX-5" value="" style="endArrow=classic;html=1;rounded=0;exitX=0.5;exitY=1;exitDx=0;exitDy=0;entryX=0.5;entryY=0;entryDx=0;entryDy=0;" edge="1" parent="1" source="lFMDpPRUeGEQqSGYaAWX-1" target="lFMDpPRUeGEQqSGYaAWX-3">
          <mxGeometry width="50" height="50" relative="1" as="geometry">
            <mxPoint x="390" y="320" as="sourcePoint" />
            <mxPoint x="440" y="270" as="targetPoint" />
          </mxGeometry>
        </mxCell>
        <mxCell id="lFMDpPRUeGEQqSGYaAWX-6" value="" style="endArrow=classic;html=1;rounded=0;exitX=0.44;exitY=1.047;exitDx=0;exitDy=0;exitPerimeter=0;" edge="1" parent="1" source="lFMDpPRUeGEQqSGYaAWX-3">
          <mxGeometry width="50" height="50" relative="1" as="geometry">
            <mxPoint x="390" y="320" as="sourcePoint" />
            <mxPoint x="183" y="270" as="targetPoint" />
          </mxGeometry>
        </mxCell>
        <mxCell id="lFMDpPRUeGEQqSGYaAWX-7" value="a = b" style="rhombus;whiteSpace=wrap;html=1;" vertex="1" parent="1">
          <mxGeometry x="140" y="350" width="80" height="80" as="geometry" />
        </mxCell>
        <mxCell id="lFMDpPRUeGEQqSGYaAWX-8" value="" style="endArrow=classic;html=1;rounded=0;exitX=0.5;exitY=1;exitDx=0;exitDy=0;entryX=0.5;entryY=0;entryDx=0;entryDy=0;" edge="1" parent="1" source="lFMDpPRUeGEQqSGYaAWX-4" target="lFMDpPRUeGEQqSGYaAWX-7">
          <mxGeometry width="50" height="50" relative="1" as="geometry">
            <mxPoint x="390" y="320" as="sourcePoint" />
            <mxPoint x="440" y="270" as="targetPoint" />
          </mxGeometry>
        </mxCell>
        <mxCell id="lFMDpPRUeGEQqSGYaAWX-9" value="" style="endArrow=classic;html=1;rounded=0;exitX=1;exitY=0.5;exitDx=0;exitDy=0;" edge="1" parent="1" source="lFMDpPRUeGEQqSGYaAWX-7">
          <mxGeometry width="50" height="50" relative="1" as="geometry">
            <mxPoint x="390" y="320" as="sourcePoint" />
            <mxPoint x="330" y="390" as="targetPoint" />
          </mxGeometry>
        </mxCell>
        <mxCell id="lFMDpPRUeGEQqSGYaAWX-15" value="true" style="edgeLabel;html=1;align=center;verticalAlign=middle;resizable=0;points=[];" connectable="0" vertex="1" parent="lFMDpPRUeGEQqSGYaAWX-9">
          <mxGeometry x="-0.2945" y="3" relative="1" as="geometry">
            <mxPoint as="offset" />
          </mxGeometry>
        </mxCell>
        <mxCell id="lFMDpPRUeGEQqSGYaAWX-10" value="ƯCLN = a" style="rounded=0;whiteSpace=wrap;html=1;" vertex="1" parent="1">
          <mxGeometry x="330" y="360" width="120" height="60" as="geometry" />
        </mxCell>
        <mxCell id="lFMDpPRUeGEQqSGYaAWX-11" value="BCNN = c.d/ƯCLN" style="rounded=0;whiteSpace=wrap;html=1;" vertex="1" parent="1">
          <mxGeometry x="560" y="360" width="120" height="60" as="geometry" />
        </mxCell>
        <mxCell id="lFMDpPRUeGEQqSGYaAWX-12" value="" style="endArrow=classic;html=1;rounded=0;exitX=1;exitY=0.5;exitDx=0;exitDy=0;entryX=0;entryY=0.5;entryDx=0;entryDy=0;" edge="1" parent="1" source="lFMDpPRUeGEQqSGYaAWX-10" target="lFMDpPRUeGEQqSGYaAWX-11">
          <mxGeometry width="50" height="50" relative="1" as="geometry">
            <mxPoint x="390" y="320" as="sourcePoint" />
            <mxPoint x="440" y="270" as="targetPoint" />
          </mxGeometry>
        </mxCell>
        <mxCell id="lFMDpPRUeGEQqSGYaAWX-13" value="a &amp;gt; b" style="rhombus;whiteSpace=wrap;html=1;" vertex="1" parent="1">
          <mxGeometry x="140" y="480" width="80" height="80" as="geometry" />
        </mxCell>
        <mxCell id="lFMDpPRUeGEQqSGYaAWX-14" value="" style="endArrow=classic;html=1;rounded=0;exitX=0.5;exitY=1;exitDx=0;exitDy=0;entryX=0.5;entryY=0;entryDx=0;entryDy=0;" edge="1" parent="1" source="lFMDpPRUeGEQqSGYaAWX-7" target="lFMDpPRUeGEQqSGYaAWX-13">
          <mxGeometry width="50" height="50" relative="1" as="geometry">
            <mxPoint x="390" y="610" as="sourcePoint" />
            <mxPoint x="440" y="560" as="targetPoint" />
          </mxGeometry>
        </mxCell>
        <mxCell id="lFMDpPRUeGEQqSGYaAWX-16" value="flase" style="edgeLabel;html=1;align=center;verticalAlign=middle;resizable=0;points=[];" connectable="0" vertex="1" parent="lFMDpPRUeGEQqSGYaAWX-14">
          <mxGeometry x="0.112" y="3" relative="1" as="geometry">
            <mxPoint as="offset" />
          </mxGeometry>
        </mxCell>
        <mxCell id="lFMDpPRUeGEQqSGYaAWX-17" value="" style="endArrow=classic;html=1;rounded=0;exitX=1;exitY=0.5;exitDx=0;exitDy=0;" edge="1" parent="1" source="lFMDpPRUeGEQqSGYaAWX-13">
          <mxGeometry width="50" height="50" relative="1" as="geometry">
            <mxPoint x="390" y="610" as="sourcePoint" />
            <mxPoint x="300" y="520" as="targetPoint" />
          </mxGeometry>
        </mxCell>
        <mxCell id="lFMDpPRUeGEQqSGYaAWX-22" value="true" style="edgeLabel;html=1;align=center;verticalAlign=middle;resizable=0;points=[];" connectable="0" vertex="1" parent="lFMDpPRUeGEQqSGYaAWX-17">
          <mxGeometry x="0.02" y="1" relative="1" as="geometry">
            <mxPoint as="offset" />
          </mxGeometry>
        </mxCell>
        <mxCell id="lFMDpPRUeGEQqSGYaAWX-19" value="a = a - b" style="rounded=0;whiteSpace=wrap;html=1;" vertex="1" parent="1">
          <mxGeometry x="300" y="490" width="120" height="60" as="geometry" />
        </mxCell>
        <mxCell id="lFMDpPRUeGEQqSGYaAWX-20" value="b = b - a" style="rounded=0;whiteSpace=wrap;html=1;" vertex="1" parent="1">
          <mxGeometry x="120" y="610" width="120" height="60" as="geometry" />
        </mxCell>
        <mxCell id="lFMDpPRUeGEQqSGYaAWX-21" value="" style="endArrow=classic;html=1;rounded=0;exitX=0.5;exitY=1;exitDx=0;exitDy=0;entryX=0.5;entryY=0;entryDx=0;entryDy=0;" edge="1" parent="1" source="lFMDpPRUeGEQqSGYaAWX-13" target="lFMDpPRUeGEQqSGYaAWX-20">
          <mxGeometry width="50" height="50" relative="1" as="geometry">
            <mxPoint x="390" y="610" as="sourcePoint" />
            <mxPoint x="440" y="560" as="targetPoint" />
          </mxGeometry>
        </mxCell>
        <mxCell id="lFMDpPRUeGEQqSGYaAWX-23" value="End&amp;nbsp;" style="ellipse;whiteSpace=wrap;html=1;" vertex="1" parent="1">
          <mxGeometry x="560" y="600" width="120" height="80" as="geometry" />
        </mxCell>
        <mxCell id="lFMDpPRUeGEQqSGYaAWX-24" value="" style="endArrow=classic;html=1;rounded=0;exitX=0.5;exitY=1;exitDx=0;exitDy=0;entryX=0.5;entryY=0;entryDx=0;entryDy=0;" edge="1" parent="1" source="lFMDpPRUeGEQqSGYaAWX-11" target="lFMDpPRUeGEQqSGYaAWX-23">
          <mxGeometry width="50" height="50" relative="1" as="geometry">
            <mxPoint x="390" y="610" as="sourcePoint" />
            <mxPoint x="440" y="560" as="targetPoint" />
          </mxGeometry>
        </mxCell>
      </root>
    </mxGraphModel>
  </diagram>
</mxfile>
